<svg id="Layer_1" data-name="Layer 1" xmlns="http://www.w3.org/2000/svg" viewBox="0 0 1000 450"><path d="M231.72,59.89a337.29,337.29,0,0,1-28.28,31.32c-8.49-2.81-25.18-8.66-41.3-15.28V222.56c3.12.25,9.62.25,13,.25,23.47,0,40.16-6.61,51.48-14.51l2.26,3.06c-14.15,17.56-34.79,33.86-77.5,33.86-57.71,0-97-30.81-97-85.79,0-38.95,32.52-73.06,56.28-83.5l3.68,2.29C96.8,92.73,88,119.46,88,140.84c0,23.17,5.08,41,15.27,54.23,9.62-6.37,11.88-14,11.88-25.71V93.75C139.51,77,155.35,64.48,172,51.24c24.05,8.65,34.79,12.22,46.39,12.22,2.54,0,5.38-1.53,9-6.37ZM157.05,73.64l-3.11-1.27-8.48,6.11V175s-20.94,11.71-39.61,23.42c11.6,13.23,28.86,21.12,51.2,23.92Z"/><path d="M344.85,113.1c-2.55,1.78-4.81,4.07-4.81,11.45v88.59a541,541,0,0,0-48.65,28.26c-12.44-7.64-26.87-15.79-38.75-21.9v-1c3.4-1.28,4.81-4.59,4.81-9.93V119.21c14.42-7.39,33.94-18.59,48.65-28.26,11.88,6.87,26.59,15.27,38.75,21.13Zm-33.94,110V122.26c-6.51-4.07-16.12-9.42-23.48-13.24l-.85.26V210.09c6.23,4.07,17.26,10.18,23.76,13.49Z"/><path d="M440.44,139.57h-1.13c-7.07-6.87-17.54-20.62-20.93-28l-5.94,5.6v92.66c13.58,7.64,16.12,8.66,20.37,8.66,2,0,3.67-1.53,5.37-3.31l2.54-2.55,4.81,3.82c-16.68,15-27.43,25-27.43,25a335.9,335.9,0,0,0-39.61-19.86v-1c3.12-2.54,4.81-4.83,4.81-12.73V116.66c-5.93-4.07-9.89-5.6-14.14-5.85l-.56-.77c6.5-5.34,15-12.22,21.49-18.83C398,97.06,406.5,103.93,413.57,109c9.9-7.63,13-10.69,21.21-17.81,5.38,7.63,15,19.85,23.77,28.25C452.89,124.55,445.82,133,440.44,139.57Z"/><path d="M570.83,113.1c-2.55,1.78-4.81,4.07-4.81,11.45v88.59a539.62,539.62,0,0,0-48.65,28.26c-12.45-7.64-26.87-15.79-38.75-21.9v-1c3.4-1.28,4.81-4.59,4.81-9.93V119.21c14.42-7.39,33.94-18.59,48.65-28.26,11.88,6.87,26.59,15.27,38.75,21.13Zm-33.94,110V122.26c-6.51-4.07-16.13-9.42-23.48-13.24l-.85.26V210.09c6.22,4.07,17.25,10.18,23.76,13.49Z"/><path d="M706.87,222.56c-5.66,4.84-15,13.24-21.78,19.09-7.07-4.84-21.22-13.74-27.16-17.31v-1c2.83-1.52,4.81-4.58,4.81-12.22V119.46c-5.09-3.56-9.9-6.11-14.42-8.91,0,0-8.21,5.86-9.9,7.13v99.79c3.39,2.54,5.94,3.82,9.61,6.36v.26c-6.78,5.34-14.7,12-20.64,17.31-8.49-5.86-17.54-12.22-22.92-15.79v-1c2.55-1.79,4.81-4.59,4.81-13v-95c-5.37-3.82-10.46-5.6-14.14-5.85l-.57-.51c8.21-6.88,14.43-12.22,21.5-19.09,9,6.36,19.24,13,25.74,17.05h.29l22.34-17.05c9.34,5.85,22.06,13.74,32.24,19.34v1c-3.11,2-4.81,4.84-4.81,10.18V216.2c4.53,3.05,11,6.1,14.43,5.85Z"/><path d="M825.09,222.56c-6.5,5.6-15.84,13.75-21.5,18.84-9.05-6.37-20.65-13.75-26.3-17.31L754.94,241.4c-7.92-5.86-20.65-14.26-30.54-20.11v-1c3.1-1.78,4.8-4.07,4.8-12.73V178.77a247.52,247.52,0,0,0,25.18-12.21c-11.6-3.82-21.22-13.5-21.22-27.24,0-17.82,9.62-26,18.39-35.39A148.18,148.18,0,0,0,762,91.21c13.58,5.34,37.34,15.27,52.9,20.36v1c-3.39,2.29-4.81,5.6-4.81,12v91.39c2.54,2.29,11.31,6.87,14.43,5.86Zm-44.13-97c-12.16-6.62-17.53-9.67-23.19-9.67-5.09,0-17.82,3.31-17.82,23.42,0,13.49,13.29,24.44,31.68,24.44A35.67,35.67,0,0,0,781,162Zm0,88.84V167.83a30.41,30.41,0,0,1-9.61,1.78,50.74,50.74,0,0,1-12.73-2c-1.42,2.29-2,6.11-2,10.7v35.89c4.81,2.8,8.48,5.6,13.86,8.4Z"/><path d="M932,165.28c-3.11,2-4.81,4.58-4.81,9.68v44c-15,5.09-31.12,13-46.39,22.4-7.92-5.09-18.67-10.44-28.57-12.48a24.48,24.48,0,0,0-1.13,7.89v3.82c-2.54-.76-7.35-2-7.35-2,.85-30.3,21.78-54,32.53-65.68-8.21-4.07-24.61-13.24-30-15.27v-1c3.11-1.53,4.81-4.08,4.81-9.17V110.55c14.43-3.82,30.55-11.45,42.43-19.34,9.05,6.36,18.38,13.23,28.85,18.83,1.7-3.56,1.41-7.13,2.55-11.45,1.69,1.27,5.09,2.54,6.22,3.82-1.7,10.69-8.49,26-27.44,47.85l28.29,14Zm-33.66,58v-50.4l-8.77-4.07c-8.49,8.4-25.74,29.27-31.12,40.47,15,.77,30.27,7.89,39.32,14.26ZM881.37,108l-1.13.51V149c2.54,1.27,7.63,3.82,10.46,4.84,6.79-6.11,16.12-18.08,20.37-25.71C899.47,123,887,113.1,881.37,108Z"/><path d="M404.92,271.37A224,224,0,0,1,386.2,292.1c-5.62-1.86-16.67-5.73-27.34-10.12v34.55h30.52c-1.68,7.76-2.81,12-4.12,18.88a22.54,22.54,0,0,0-10.11-2.19H358.86v45.84c2.06.17,6.37.17,8.61.17,15.55,0,27.34-5.05,34.83-10.28l1.5,2c-9.36,11.63-23,23.09-52.06,23.09-38.2,0-64.23-20.39-64.23-56.79,0-25.79,21.53-48,37.45-55.29l2.25,1.52c-11.61,9.61-17.42,27.31-17.42,41.46,0,15,3.37,27,10.3,35.9,6-3.88,7.68-9.44,7.68-17V293.78c16.11-11.12,26.59-19.38,37.64-28.14,15.92,5.73,23,8.09,30.71,8.09,1.69,0,3.56-1,6-4.22Zm-49.43,9.1-2.06-.84L347.81,284v63.54s-13.67,7.75-26,15.5c7.49,8.43,18.54,13.65,33.71,15.68Z"/><path d="M483.19,378.89,469,391.53l-14-9.1-13.3-31.18a126.06,126.06,0,0,0-14.23,21.58c7.11,3.54,16.66,4.88,20.22,5.05l.19.51-13.86,13.82a87,87,0,0,1-13.29-4.55c-.57,1.35-.75,2.86-.94,5.73h-.37c-1.13-.68-4.12-2.36-5.06-3.54,3-14.66,8.61-24.27,24.34-45l-15.17-35.39s-5.24-4.22-10.11-4.22l-.19-.5,14.24-12.64,12.17,7.08L454,332.38a100.36,100.36,0,0,0,13.11-20.56c-8-5.23-10.3-5.9-12.92-5.9a6.45,6.45,0,0,0-4.31,1.51l-2.06-1.68,13.67-14,17.79,8.76c-3.93,11.13-12.92,26.8-22.47,38.26l15.73,35.73s6,3.88,10.49,3.88Z"/><path d="M542,375l-18.17,16.51c-7.3-4.21-18.16-9.94-25.09-13v-.68c2.43-1.35,3.18-4,3.18-8.09V311.65h-7.86v-1c10.11-5.9,20.41-21.75,25.65-34.22H521v25.45h19.3l-4.88,9.78H521V371c9,5.23,9.74,4.89,12.74,4.89a5.88,5.88,0,0,0,3.93-1.68l1.5-1.52Z"/><path d="M599.66,324.12h-.75c-4.68-4.55-11.61-13.65-13.86-18.54l-3.93,3.71v61.35c9,5.05,10.67,5.73,13.48,5.73,1.32,0,2.44-1,3.56-2.19l1.69-1.69L603,375c-11,9.94-18.16,16.51-18.16,16.51a223.09,223.09,0,0,0-26.22-13.14v-.68c2.06-1.68,3.18-3.2,3.18-8.42V309c-3.93-2.7-6.55-3.71-9.36-3.88l-.37-.5c4.3-3.54,9.92-8.09,14.23-12.47,5.24,3.87,10.86,8.42,15.54,11.79,6.55-5.05,8.61-7.07,14-11.79a142.55,142.55,0,0,0,15.73,18.71A131,131,0,0,0,599.66,324.12Z"/><path d="M686.73,379.06c-4.3,3.71-10.48,9.1-14.23,12.47-6-4.21-13.67-9.1-17.41-11.46l-14.8,11.46c-5.24-3.87-13.67-9.43-20.22-13.31v-.67c2.06-1.18,3.18-2.7,3.18-8.43V350.07A163.23,163.23,0,0,0,639.92,342c-7.68-2.52-14-8.93-14-18,0-11.8,6.37-17.19,12.18-23.43A102.24,102.24,0,0,0,645,292.1c9,3.54,24.71,10.11,35,13.48v.67c-2.24,1.52-3.18,3.71-3.18,7.93v60.5c1.69,1.52,7.49,4.55,9.55,3.88Zm-29.21-64.21c-8-4.38-11.61-6.4-15.35-6.4-3.38,0-11.8,2.19-11.8,15.5,0,8.93,8.8,16.18,21,16.18a23.39,23.39,0,0,0,6.18-1.18Zm0,58.82V342.83a20.3,20.3,0,0,1-6.37,1.18,33.93,33.93,0,0,1-8.43-1.35c-.93,1.52-1.31,4-1.31,7.08V373.5c3.19,1.86,5.62,3.71,9.18,5.56Z"/></svg>